PathFileType	4	(X/Y/Z)	C:/Users/opensim2020/Desktop/walking_exp_matlab/subject02/subject02_trc/subject02_walking16_run_cyclic.trc	
DataRate	CameraRate	NumFrames	NumMarkers	Units	OrigDataRate	OrigDataStartFrame	OrigNumFrames	
100.00	100.00	6	51	mm	100.00	197	60	
Frame#	Time	RTOE			LSHO			LELB			RELB			RFIN			LTHI			LKNE			RWRB			RUPA			LTIB			RASI			LANK			LTOE			RSHO			RWRA			RFRM			LASI			STRN			LFHD			RTHI			RFHD			LWRB			LFIN			LUPA			RKNE			RBHD			LFRM			C7			LWRA			RTIB			CLAV			LHEE			RANK			LBHD			RBAK			RHEE			T10			LPSI			RPSI			*39			*40			*41			*42			*43			*44			*45			*46			*47			*48			*49			*50			
		X1	Y1	Z1	X2	Y2	Z2	X3	Y3	Z3	X4	Y4	Z4	X5	Y5	Z5	X6	Y6	Z6	X7	Y7	Z7	X8	Y8	Z8	X9	Y9	Z9	X10	Y10	Z10	X11	Y11	Z11	X12	Y12	Z12	X13	Y13	Z13	X14	Y14	Z14	X15	Y15	Z15	X16	Y16	Z16	X17	Y17	Z17	X18	Y18	Z18	X19	Y19	Z19	X20	Y20	Z20	X21	Y21	Z21	X22	Y22	Z22	X23	Y23	Z23	X24	Y24	Z24	X25	Y25	Z25	X26	Y26	Z26	X27	Y27	Z27	X28	Y28	Z28	X29	Y29	Z29	X30	Y30	Z30	X31	Y31	Z31	X32	Y32	Z32	X33	Y33	Z33	X34	Y34	Z34	X35	Y35	Z35	X36	Y36	Z36	X37	Y37	Z37	X38	Y38	Z38	X39	Y39	Z39	X40	Y40	Z40	X41	Y41	Z41	X42	Y42	Z42	X43	Y43	Z43	X44	Y44	Z44	X45	Y45	Z45	X46	Y46	Z46	X47	Y47	Z47	X48	Y48	Z48	X49	Y49	Z49	X50	Y50	Z50	X51	Y51	Z51	

31	0.300	185.96181	-305.77991	85.26202	-184.45125	-493.22205	1471.51038	-197.99469	-313.51508	1197.36011	322.62680	-779.33691	1351.74292	296.52448	-639.04529	1094.20154	-147.84303	-711.49707	656.76208	-110.43388	-786.84143	471.71838	304.11136	-703.24976	1108.71484	246.62999	-690.00909	1445.21411	-106.42063	-918.61902	332.17316	128.43810	-517.35223	957.98505	-64.12750	-1026.48706	137.09300	-51.42688	-909.39343	28.53596	147.26820	-547.87616	1501.75574	263.57230	-672.81793	1136.74756	318.81464	-739.99768	1231.91785	-122.39114	-552.24988	942.10773	3.48130	-441.04587	1243.60657	-73.76678	-440.07608	1726.23120	211.82327	-485.85333	699.46332	70.02412	-448.79013	1706.03564	-6.14925	-293.13708	1365.34375	27.34873	-308.20352	1422.65027	-229.26263	-399.84882	1305.61853	180.90523	-391.08853	520.67157	46.77217	-577.01343	1607.77234	-91.34178	-291.54562	1278.62158	-36.62657	-595.76483	1504.10889	-25.82318	-342.83813	1383.59070	209.49120	-427.69757	336.35718	-16.11496	-460.72290	1425.15308	-16.20732	-1068.68567	140.07581	192.59767	-454.90463	140.90991	-93.30495	-555.87292	1631.58447	32.40804	-684.60602	1357.62561	143.35548	-497.11008	81.99837	-3.27966	-693.38232	1256.52832	-23.96352	-733.54297	1032.74084	87.66489	-725.27002	1043.45203				-3357.25171	2845.96118	1034.73450																									7.42687	-558.54425	1772.45215			 
32	0.310	178.02275	-220.35542	93.87659	-177.74083	-452.59476	1479.88110	-203.90645	-264.40234	1213.14136	319.03015	-750.61121	1361.57190	301.31039	-610.72382	1104.42712	-148.08539	-680.12964	668.18628	-112.10267	-763.10474	484.69321	305.36533	-675.09155	1118.25183	246.48735	-657.57782	1453.89575	-106.81825	-899.00458	347.69165	129.01904	-475.16077	966.03632	-67.27259	-1009.65643	154.28650	-52.69389	-909.35638	28.52869	149.56261	-513.40845	1507.23694	266.41809	-642.64154	1146.26343	317.74133	-711.67291	1242.25537	-121.64825	-509.20325	948.55322	7.89056	-402.08527	1250.48694	-69.10658	-401.62738	1730.78479	211.62477	-447.54553	702.35297	74.63801	-410.68634	1710.76111	-6.17181	-258.67047	1377.07153	28.16779	-278.41107	1431.90198	-228.67630	-352.91907	1320.28101	181.80800	-350.56100	524.40491	51.33854	-539.39124	1613.24670	-93.92303	-250.04381	1292.60352	-34.50613	-557.37732	1509.51782	-26.81662	-308.89209	1392.63403	209.94930	-366.56494	336.07742	-10.88838	-423.30569	1431.47656	-16.33967	-1045.65442	160.18353	192.80705	-373.92798	138.43375	-88.71854	-517.86322	1636.81531	30.86186	-646.19482	1361.63721	143.93176	-412.07687	76.50439	-5.03753	-653.57306	1260.31372	-23.19499	-690.28052	1035.72412	89.03211	-683.51208	1047.25391				-3357.49365	2845.98120	1034.66492																									11.77464	-520.02307	1777.59888			 
33	0.320	168.75102	-139.91980	108.54760	-171.06177	-412.21320	1486.64124	-211.68909	-217.46155	1227.18335	315.32428	-720.68304	1369.56677	306.00085	-581.03308	1112.49805	-148.57782	-644.03571	678.24597	-112.83339	-736.52771	497.77591	306.02396	-645.60590	1125.55408	246.50513	-624.63147	1461.17371	-105.30377	-876.79700	363.65274	129.25511	-432.42416	973.36926	-70.39005	-986.84290	169.31499	-53.12948	-908.53247	27.63153	152.22635	-478.90549	1512.63647	268.92337	-611.09088	1153.68335	316.44885	-681.99683	1250.61169	-120.57854	-465.22870	955.17365	12.90570	-363.04190	1257.21106	-64.41452	-363.24631	1734.61951	212.00117	-410.09070	704.67041	79.35437	-372.49237	1715.10645	-6.43331	-223.75934	1383.82275	29.65985	-247.30769	1436.10767	-228.61111	-307.97794	1333.22205	183.72667	-311.24344	525.81555	56.22568	-501.95761	1618.54077	-97.27537	-208.66144	1303.90515	-32.24680	-519.02814	1514.80945	-27.14159	-274.53342	1397.22083	210.40057	-309.69421	336.10898	-5.34434	-386.23923	1437.59033	-16.88084	-1016.14685	179.45857	191.69978	-297.45236	138.38394	-83.91641	-480.13519	1641.58752	29.35165	-607.41687	1365.53955	144.16693	-331.15872	73.33770	-7.38857	-613.84729	1263.67786	-22.36886	-646.80121	1039.20203	90.47235	-641.59033	1050.62402				-3355.31738	2846.63867	1034.94458																									16.05159	-481.36536	1782.59009			 
34	0.330	159.35876	-66.27205	125.41013	-164.59633	-372.23758	1491.88538	-219.89400	-172.87067	1239.67651	311.92276	-689.56409	1375.19360	310.48779	-550.01794	1118.07544	-148.60228	-606.22791	686.08130	-110.78983	-707.38281	510.05252	306.39090	-614.30804	1130.33643	246.28552	-591.40735	1466.86865	-102.22795	-851.12378	378.55118	129.28091	-389.51083	979.43945	-75.13732	-959.58612	183.06686	-54.12808	-905.27930	29.86541	154.66919	-444.31543	1517.47998	272.06458	-577.77924	1159.37769	315.28271	-650.76379	1256.64307	-119.42112	-420.70615	961.50787	18.52818	-323.80746	1263.24951	-59.83939	-324.88159	1737.39783	213.60144	-372.45294	707.04065	83.91682	-334.32913	1718.40417	-6.21261	-187.64427	1385.69458	32.49133	-214.04877	1435.12659	-230.08894	-265.66861	1344.19751	185.84541	-272.66696	525.36047	61.20877	-464.69299	1623.21350	-101.78798	-168.45274	1310.95435	-29.76851	-480.75964	1519.52576	-26.65431	-238.80998	1397.51953	210.81784	-257.25226	336.14224	0.10451	-349.40649	1443.30322	-20.26850	-983.96320	198.82507	189.85031	-226.21855	140.35036	-79.00227	-442.77811	1645.65588	28.08465	-568.29980	1369.12158	143.01431	-255.40865	72.84850	-9.46129	-574.93152	1266.26733	-21.43324	-603.31152	1043.26941	91.95798	-599.55066	1053.55334																															20.39180	-442.37180	1787.03320			 
35	0.340	152.34950	-0.77176	140.04448	-158.37288	-332.79401	1496.08154	-228.28616	-131.02170	1249.97656	308.94006	-657.26031	1378.03821	314.82806	-516.93500	1120.89233	-148.36707	-568.35559	691.83008	-108.57084	-674.71228	520.16736	307.00354	-580.85211	1132.51514	245.65137	-558.14758	1470.43176	-100.01991	-821.72302	391.54865	129.26245	-347.34109	983.72260	-77.55103	-933.46033	198.74847	-55.52820	-893.55524	38.75976	156.68900	-410.17993	1521.30078	275.08087	-542.62256	1161.98853	314.49411	-617.86987	1259.51563	-118.08070	-375.91049	967.44843	24.56171	-284.50037	1268.47522	-55.53483	-286.53461	1738.83191	216.08420	-333.78751	709.21680	88.34947	-296.00284	1720.66272	-5.15390	-149.83044	1382.03503	37.18521	-177.83203	1427.87988	-233.04147	-225.99492	1353.21704	187.76875	-235.14915	523.48663	66.38104	-427.23328	1627.02795	-106.12846	-128.60112	1314.29675	-27.02902	-442.70673	1523.31494	-24.95377	-201.19173	1393.53308	210.44789	-208.29980	335.95654	5.31846	-312.32141	1447.79199	-24.03078	-956.36914	216.94167	188.02711	-161.94653	143.31261	-73.94025	-405.48969	1648.42358	27.35169	-529.24567	1371.96008	141.05237	-185.37234	74.08781	-11.09099	-535.13757	1267.52161	-20.48161	-559.81183	1047.85291	93.35725	-557.11603	1056.21533				-3356.94604	2846.21924	1034.29333																									24.62409	-403.13858	1790.53027			 
36	0.350	149.98402	56.73820	149.13460	-152.64392	-293.94189	1499.70105	-236.93956	-91.98602	1257.58008	306.67410	-623.97198	1377.81873	318.92114	-481.42084	1121.08398	-147.65054	-529.79077	696.24359	-107.32851	-636.57727	525.61810	308.08319	-545.08704	1132.27893	245.44194	-524.63123	1472.39526	-98.18632	-788.22003	402.79691	129.49223	-306.15247	986.53326	-76.66116	-907.84772	214.84880	-59.37376	-876.92200	50.63217	158.40398	-376.15457	1523.70862	278.53918	-504.87354	1162.41858	314.54709	-583.60370	1259.57983	-116.20338	-331.35727	972.53906	30.60520	-245.44716	1272.73059	-51.33843	-248.29767	1739.19824	218.84567	-293.89975	709.91010	92.64906	-257.62457	1722.05872	-3.55416	-109.70144	1372.32043	43.25803	-137.49625	1414.17896	-236.98465	-188.48347	1360.52661	189.02367	-198.11551	520.80609	71.53453	-389.79654	1629.65967	-110.34659	-89.06876	1313.23950	-24.06056	-404.96558	1525.61926	-22.04251	-161.02080	1385.22034	209.58362	-162.78828	335.72824	10.43424	-275.24078	1451.15759	-23.40214	-930.61139	233.52391	185.13649	-105.49527	145.88487	-68.92138	-368.26611	1650.08936	27.43449	-490.50281	1373.67651	136.61430	-125.98745	77.78989	-11.96577	-495.15973	1267.79272	-19.82736	-516.34442	1052.48950	94.41698	-514.68365	1058.77515				-3356.80664	2846.17456	1034.13586																									28.81719	-363.94705	1792.92700			 
